<?xml version="1.0" encoding="UTF-8"?>
<svg id="_Слой_1" data-name="Слой 1" xmlns="http://www.w3.org/2000/svg" xmlns:xlink="http://www.w3.org/1999/xlink" viewBox="155.16 491.69 940.61 267.57">
  <defs>
    <style>
      .cls-1 {
        fill: url(#_Безымянный_градиент_651-3);
      }

      .cls-2 {
        fill: url(#_Безымянный_градиент_651-2);
      }

      .cls-3 {
        fill: url(#_Безымянный_градиент_651);
      }

      .cls-4 {
        fill: #fff;
      }

      .cls-5 {
        fill: url(#_Безымянный_градиент_651-5);
      }

      .cls-6 {
        fill: #0a305c;
      }

      .cls-7 {
        fill: url(#_Безымянный_градиент_649);
      }

      .cls-8 {
        fill: url(#_Безымянный_градиент_649-2);
      }

      .cls-9 {
        fill: url(#_Безымянный_градиент_651-6);
      }

      .cls-10 {
        fill: url(#_Безымянный_градиент_651-4);
      }

      .cls-11 {
        fill: url(#_Безымянный_градиент_651-7);
      }
    </style>
    <linearGradient id="_Безымянный_градиент_651" data-name="Безымянный градиент 651" x1="888.53" y1="676.27" x2="1054.3" y2="676.27" gradientUnits="userSpaceOnUse">
      <stop offset="0" stop-color="#e2aa56"/>
      <stop offset=".3" stop-color="#d98407"/>
      <stop offset=".36" stop-color="#da8811"/>
      <stop offset=".64" stop-color="#de9c3a"/>
      <stop offset=".87" stop-color="#e1a853"/>
      <stop offset="1" stop-color="#e3ad5d"/>
    </linearGradient>
    <linearGradient id="_Безымянный_градиент_651-2" data-name="Безымянный градиент 651" x1="888.53" x2="1054.3" xlink:href="#_Безымянный_градиент_651"/>
    <linearGradient id="_Безымянный_градиент_651-3" data-name="Безымянный градиент 651" x1="888.53" x2="1054.3" xlink:href="#_Безымянный_градиент_651"/>
    <linearGradient id="_Безымянный_градиент_651-4" data-name="Безымянный градиент 651" x1="888.53" x2="1054.3" xlink:href="#_Безымянный_градиент_651"/>
    <linearGradient id="_Безымянный_градиент_651-5" data-name="Безымянный градиент 651" x1="888.53" x2="1054.3" xlink:href="#_Безымянный_градиент_651"/>
    <linearGradient id="_Безымянный_градиент_651-6" data-name="Безымянный градиент 651" x1="888.53" x2="1054.3" xlink:href="#_Безымянный_градиент_651"/>
    <linearGradient id="_Безымянный_градиент_651-7" data-name="Безымянный градиент 651" x1="888.53" y1="684.66" x2="1054.3" y2="684.66" xlink:href="#_Безымянный_градиент_651"/>
    <linearGradient id="_Безымянный_градиент_649" data-name="Безымянный градиент 649" x1="258.17" y1="658.06" x2="375.2" y2="563.15" gradientUnits="userSpaceOnUse">
      <stop offset="0" stop-color="#e3ad5d"/>
      <stop offset=".13" stop-color="#e1a853"/>
      <stop offset=".36" stop-color="#de9c3a"/>
      <stop offset=".64" stop-color="#da8811"/>
      <stop offset=".7" stop-color="#d98407"/>
      <stop offset="1" stop-color="#e2aa56"/>
    </linearGradient>
    <linearGradient id="_Безымянный_градиент_649-2" data-name="Безымянный градиент 649" x1="258.17" y1="658.06" x2="375.2" y2="563.15" xlink:href="#_Безымянный_градиент_649"/>
  </defs>
  <rect class="cls-6" width="1250.94" height="1250.94"/>
  <g>
    <path class="cls-4" d="M400,572.74h17.1l13.58,49.28,16.25-49.28h17.1l16.25,49.28,13.58-49.28h17.1l-22.24,73.44h-15.82l-17.32-50.46-17.42,50.46h-15.93l-22.24-73.44Z"/>
    <path class="cls-4" d="M534.95,586.96v14.65h36.88v14.22h-36.88v16.14h40.73v14.22h-56.55v-73.44h56.55v14.22h-40.73Z"/>
    <path class="cls-4" d="M633.43,646.19l-16.78-23.84h-11.65v23.84h-15.71v-73.44h33.03c15.93,0,27.69,10.26,27.69,24.8,0,10.9-6.63,19.46-16.68,22.98l18.07,25.66h-17.96ZM604.99,607.92h15.61c7.8,0,13.15-4.06,13.15-10.37s-5.35-10.37-13.15-10.37h-15.61v20.74Z"/>
    <path class="cls-4" d="M679.38,586.96h-22.88v-14.22h61.58v14.22h-22.88v59.22h-15.82v-59.22Z"/>
    <path class="cls-4" d="M722.32,635.28l9.09-10.8c6.95,5.99,14.86,9.62,24.16,9.62,7.91,0,11.97-3.63,11.97-8.23,0-5.24-4.28-6.84-15.5-9.41-15.5-3.53-26.51-7.91-26.51-22.13s11.12-22.88,27.15-22.88c11.97,0,21.27,3.74,28.76,10.16l-8.23,11.33c-6.52-5.24-13.9-8.12-20.95-8.12s-10.8,3.53-10.8,7.91c0,5.35,4.38,7.06,15.71,9.62,15.82,3.53,26.3,8.23,26.3,21.81s-10.58,23.3-28.54,23.3c-12.72,0-24.05-4.28-32.61-12.19Z"/>
    <path class="cls-4" d="M812.37,586.96h-22.88v-14.22h61.58v14.22h-22.88v59.22h-15.82v-59.22Z"/>
    <path class="cls-4" d="M899.5,634.64h-32.71l-4.7,11.55h-17.64l29.93-73.44h17.64l29.93,73.44h-17.75l-4.7-11.55ZM894.05,621.28l-10.9-26.83-10.9,26.83h21.81Z"/>
    <path class="cls-4" d="M938.32,586.96h-22.88v-14.22h61.58v14.22h-22.88v59.22h-15.82v-59.22Z"/>
    <path class="cls-4" d="M1006.68,586.96h-22.88v-14.22h61.58v14.22h-22.88v59.22h-15.82v-59.22Z"/>
    <path class="cls-4" d="M430.25,683.74h-9.71l-1.4,3.43h-5.24l8.89-21.81h5.24l8.89,21.81h-5.27l-1.4-3.43ZM428.63,679.78l-3.24-7.97-3.24,7.97h6.48Z"/>
    <path class="cls-4" d="M439.65,665.36h4.67l10.51,14.09v-14.09h4.7v21.81h-4.7l-10.51-14.09v14.09h-4.67v-21.81Z"/>
    <path class="cls-4" d="M464.64,665.36h7.81c7.33,0,12.54,4.51,12.54,10.89s-5.21,10.92-12.54,10.92h-7.81v-21.81ZM473.05,682.92c4.16,0,7.11-2.76,7.11-6.67s-2.95-6.63-7.11-6.63h-3.75v13.3h3.75Z"/>
    <path class="cls-4" d="M493.58,669.59v4.35h10.95v4.22h-10.95v4.79h12.09v4.22h-16.79v-21.81h16.79v4.22h-12.09Z"/>
    <path class="cls-4" d="M523.12,687.17l-4.98-7.08h-3.46v7.08h-4.67v-21.81h9.81c4.73,0,8.22,3.05,8.22,7.36,0,3.24-1.97,5.78-4.95,6.83l5.37,7.62h-5.33ZM514.68,675.81h4.63c2.32,0,3.9-1.21,3.9-3.08s-1.59-3.08-3.9-3.08h-4.63v6.16Z"/>
    <path class="cls-4" d="M536.7,669.59v4.35h10.95v4.22h-10.95v4.79h12.09v4.22h-16.79v-21.81h16.79v4.22h-12.09Z"/>
    <path class="cls-4" d="M582.98,665.36l-8.89,21.81h-5.24l-8.89-21.81h5.27l6.25,15.36,6.25-15.36h5.24Z"/>
    <path class="cls-4" d="M590.31,669.59v4.35h10.95v4.22h-10.95v4.79h12.09v4.22h-16.79v-21.81h16.79v4.22h-12.09Z"/>
    <path class="cls-4" d="M619.85,687.17l-4.98-7.08h-3.46v7.08h-4.67v-21.81h9.81c4.73,0,8.22,3.05,8.22,7.36,0,3.24-1.97,5.78-4.95,6.83l5.36,7.62h-5.33ZM611.41,675.81h4.63c2.32,0,3.9-1.21,3.9-3.08s-1.59-3.08-3.9-3.08h-4.63v6.16Z"/>
    <path class="cls-4" d="M626.94,683.93l2.7-3.21c2.06,1.78,4.41,2.86,7.17,2.86,2.35,0,3.56-1.08,3.56-2.44,0-1.56-1.27-2.03-4.6-2.79-4.6-1.05-7.87-2.35-7.87-6.57s3.3-6.79,8.06-6.79c3.56,0,6.32,1.11,8.54,3.02l-2.44,3.36c-1.94-1.56-4.13-2.41-6.22-2.41s-3.21,1.05-3.21,2.35c0,1.59,1.3,2.1,4.67,2.86,4.7,1.05,7.81,2.44,7.81,6.48s-3.14,6.92-8.48,6.92c-3.78,0-7.14-1.27-9.68-3.62Z"/>
    <path class="cls-4" d="M648.92,665.36h9.81c4.73,0,8.22,3.05,8.22,7.36s-3.49,7.36-8.22,7.36h-5.14v7.08h-4.67v-21.81ZM658.22,675.81c2.32,0,3.9-1.21,3.9-3.08s-1.59-3.08-3.9-3.08h-4.64v6.16h4.64Z"/>
    <path class="cls-4" d="M683.13,687.17l-4.98-7.08h-3.46v7.08h-4.67v-21.81h9.81c4.73,0,8.22,3.05,8.22,7.36,0,3.24-1.97,5.78-4.95,6.83l5.36,7.62h-5.33ZM674.68,675.81h4.63c2.32,0,3.9-1.21,3.9-3.08s-1.59-3.08-3.9-3.08h-4.63v6.16Z"/>
    <path class="cls-4" d="M696.7,669.59v4.35h10.95v4.22h-10.95v4.79h12.09v4.22h-16.79v-21.81h16.79v4.22h-12.09Z"/>
    <path class="cls-4" d="M711.58,676.25c0-6.13,5.33-11.27,11.59-11.27,3.3,0,6.35,1.4,8.48,3.65l-3.4,3.05c-1.27-1.46-3.08-2.44-5.08-2.44-3.65,0-6.76,3.24-6.76,7.02s3.11,7.05,6.76,7.05c2,0,3.81-.98,5.08-2.44l3.4,3.05c-2.13,2.22-5.17,3.65-8.48,3.65-6.25,0-11.59-5.17-11.59-11.3Z"/>
    <path class="cls-4" d="M753.97,665.36v21.81h-4.67v-9.02h-9.94v9.02h-4.67v-21.81h4.67v8.57h9.94v-8.57h4.67Z"/>
    <path class="cls-4" d="M763.61,669.59v4.35h10.95v4.22h-10.95v4.79h12.09v4.22h-16.79v-21.81h16.79v4.22h-12.09Z"/>
    <path class="cls-4" d="M780.13,665.36h4.67l10.51,14.09v-14.09h4.7v21.81h-4.7l-10.51-14.09v14.09h-4.67v-21.81Z"/>
    <path class="cls-4" d="M804.62,684.6c0-1.49,1.3-2.83,2.95-2.83,1.56,0,2.83,1.33,2.83,2.83,0,1.62-1.27,2.95-2.83,2.95-1.65,0-2.95-1.33-2.95-2.95Z"/>
    <path class="cls-4" d="M822.11,665.36h5.08l4.03,14.63,4.82-14.63h5.08l4.83,14.63,4.03-14.63h5.08l-6.6,21.81h-4.7l-5.14-14.98-5.17,14.98h-4.73l-6.6-21.81Z"/>
    <path class="cls-4" d="M857.86,665.36h4.7v21.81h-4.7v-21.81Z"/>
    <path class="cls-4" d="M880.57,687.17l-4.98-7.08h-3.46v7.08h-4.67v-21.81h9.81c4.73,0,8.22,3.05,8.22,7.36,0,3.24-1.97,5.78-4.95,6.83l5.36,7.62h-5.33ZM872.12,675.81h4.63c2.32,0,3.9-1.21,3.9-3.08s-1.59-3.08-3.9-3.08h-4.63v6.16Z"/>
    <path class="cls-3" d="M917.61,665.36v21.81h-4.67v-9.02h-9.94v9.02h-4.67v-21.81h4.67v8.57h9.94v-8.57h4.67Z"/>
    <path class="cls-2" d="M936.57,683.74h-9.71l-1.4,3.43h-5.24l8.89-21.81h5.24l8.89,21.81h-5.27l-1.4-3.43ZM934.95,679.78l-3.24-7.97-3.24,7.97h6.48Z"/>
    <path class="cls-1" d="M961.35,682.95v4.22h-15.55v-21.81h4.7v17.59h10.86Z"/>
    <path class="cls-10" d="M966.88,669.59h-6.79v-4.22h18.28v4.22h-6.79v17.59h-4.7v-17.59Z"/>
    <path class="cls-5" d="M985.96,669.59v4.35h10.95v4.22h-10.95v4.79h12.09v4.22h-16.79v-21.81h16.79v4.22h-12.09Z"/>
    <path class="cls-9" d="M1002.49,665.36h4.67l10.51,14.09v-14.09h4.7v21.81h-4.7l-10.51-14.09v14.09h-4.67v-21.81Z"/>
    <path class="cls-11" d="M1026.98,684.6c0-1.49,1.3-2.83,2.95-2.83,1.56,0,2.83,1.33,2.83,2.83,0,1.62-1.27,2.95-2.83,2.95-1.65,0-2.95-1.33-2.95-2.95Z"/>
  </g>
  <path class="cls-7" d="M342.72,585.58c-3.02,3.93-5.82,8.02-8.41,12.24l-12.71,20.72-21.93,38.6-5.43-9.08h0l-15.98-29.06v-.02s-.25-.43-.25-.43h0s-10.22-17.23-10.22-17.23h-16.59l18.59,32.12,15.6,28.62h0s14.06,24.91,14.06,24.91l38.05-66.67s7.23-12.51,15.93-25.11c4.4-6.37,9.18-12.77,13.59-17.57l5.32-5.83v-19.15s-5.32,5.58-5.32,5.58c0,0-13.61,13.48-24.3,27.37Z"/>
  <g>
    <polygon class="cls-4" points="264.04 657.09 243.48 620.97 226.9 620.97 264.04 686.97 278.38 661.52 270.05 646.47 264.04 657.09"/>
    <path class="cls-4" d="M311.58,578.49c-11.86,16.15-23.08,35.41-26.39,41.2l8.25,15.1,3.15-5.59s33.95-61.31,66.96-86.98h-20.25c-1.74,1.7-18.33,18.04-31.71,36.26Z"/>
    <polygon class="cls-4" points="367.81 589.33 367.81 704.34 210.09 704.34 210.09 546.61 328.48 546.61 332.55 542.08 205.56 542.08 205.56 708.86 372.34 708.86 372.34 584.2 367.81 589.33"/>
    <path class="cls-8" d="M342.72,585.58c-3.02,3.93-5.82,8.02-8.41,12.24l-12.71,20.72-21.93,38.6-5.43-9.08h0l-15.98-29.06v-.02s-.25-.43-.25-.43h0s-10.22-17.23-10.22-17.23h-16.59l18.59,32.12,15.6,28.62h0s14.06,24.91,14.06,24.91l38.05-66.67s7.23-12.51,15.93-25.11c4.4-6.37,9.18-12.77,13.59-17.57l5.32-5.83v-19.15s-5.32,5.58-5.32,5.58c0,0-13.61,13.48-24.3,27.37Z"/>
  </g>
</svg>
