<?xml version="1.0" encoding="UTF-8"?>
<svg id="_Слой_1" data-name="Слой 1" xmlns="http://www.w3.org/2000/svg" xmlns:xlink="http://www.w3.org/1999/xlink" viewBox="264.05 548.74 722.85 153.46">
  <defs>
    <style>
      .cls-1 {
        fill: #fff;
      }

      .cls-2 {
        fill: #0a305c;
      }

      .cls-3 {
        fill: url(#_Безымянный_градиент_649);
      }

      .cls-4 {
        fill: url(#_Безымянный_градиент_649-2);
      }

      .cls-5 {
        fill: url(#_Безымянный_градиент_649-3);
      }

      .cls-6 {
        fill: url(#_Безымянный_градиент_649-4);
      }
    </style>
    <linearGradient id="_Безымянный_градиент_649" data-name="Безымянный градиент 649" x1="652.68" y1="526.5" x2="276.34" y2="648.41" gradientUnits="userSpaceOnUse">
      <stop offset="0" stop-color="#e3ad5d"/>
      <stop offset=".13" stop-color="#e1a853"/>
      <stop offset=".36" stop-color="#de9c3a"/>
      <stop offset=".64" stop-color="#da8811"/>
      <stop offset=".7" stop-color="#d98407"/>
      <stop offset="1" stop-color="#e2aa56"/>
    </linearGradient>
    <linearGradient id="_Безымянный_градиент_649-2" data-name="Безымянный градиент 649" x1="662.47" y1="556.71" x2="286.13" y2="678.62" xlink:href="#_Безымянный_градиент_649"/>
    <linearGradient id="_Безымянный_градиент_649-3" data-name="Безымянный градиент 649" x1="669.4" y1="578.09" x2="293.05" y2="700" xlink:href="#_Безымянный_градиент_649"/>
    <linearGradient id="_Безымянный_градиент_649-4" data-name="Безымянный градиент 649" x1="674.67" y1="594.36" x2="298.32" y2="716.28" xlink:href="#_Безымянный_градиент_649"/>
  </defs>
  <rect class="cls-2" width="1250.94" height="1250.94"/>
  <g>
    <path class="cls-3" d="M302.78,588.75h17.1l13.58,49.28,16.25-49.28h17.1l16.25,49.28,13.58-49.28h17.1l-22.24,73.44h-15.82l-17.32-50.46-17.42,50.46h-15.93l-22.24-73.44Z"/>
    <path class="cls-4" d="M437.73,602.97v14.65h36.88v14.22h-36.88v16.14h40.73v14.22h-56.55v-73.44h56.55v14.22h-40.73Z"/>
    <path class="cls-5" d="M536.21,662.19l-16.78-23.84h-11.65v23.84h-15.71v-73.44h33.03c15.93,0,27.69,10.26,27.69,24.8,0,10.9-6.63,19.46-16.68,22.98l18.07,25.66h-17.96ZM507.78,623.92h15.61c7.8,0,13.15-4.06,13.15-10.37s-5.35-10.37-13.15-10.37h-15.61v20.74Z"/>
    <path class="cls-6" d="M582.16,602.97h-22.88v-14.22h61.58v14.22h-22.88v59.22h-15.82v-59.22Z"/>
    <path class="cls-1" d="M625.1,651.29l9.09-10.8c6.95,5.99,14.86,9.62,24.16,9.62,7.91,0,11.97-3.63,11.97-8.23,0-5.24-4.28-6.84-15.5-9.41-15.5-3.53-26.51-7.91-26.51-22.13s11.12-22.88,27.15-22.88c11.97,0,21.27,3.74,28.76,10.16l-8.23,11.33c-6.52-5.24-13.9-8.12-20.95-8.12s-10.8,3.53-10.8,7.91c0,5.35,4.38,7.06,15.71,9.62,15.82,3.53,26.3,8.23,26.3,21.81s-10.58,23.3-28.54,23.3c-12.72,0-24.05-4.28-32.61-12.19Z"/>
    <path class="cls-1" d="M715.15,602.97h-22.88v-14.22h61.58v14.22h-22.88v59.22h-15.82v-59.22Z"/>
    <path class="cls-1" d="M802.29,650.65h-32.71l-4.7,11.55h-17.64l29.93-73.44h17.64l29.93,73.44h-17.75l-4.7-11.55ZM796.83,637.29l-10.9-26.83-10.9,26.83h21.81Z"/>
    <path class="cls-1" d="M841.1,602.97h-22.88v-14.22h61.58v14.22h-22.88v59.22h-15.82v-59.22Z"/>
    <path class="cls-1" d="M909.47,602.97h-22.88v-14.22h61.58v14.22h-22.88v59.22h-15.82v-59.22Z"/>
  </g>
</svg>
