<?xml version="1.0" encoding="UTF-8"?>
<svg id="_Слой_1" data-name="Слой 1" xmlns="http://www.w3.org/2000/svg" xmlns:xlink="http://www.w3.org/1999/xlink" viewBox="0 0 2679.99 3991.77">
  <defs>
    <style>
      .cls-1 {
        fill: url(#_Безымянный_градиент_651-23);
      }

      .cls-2 {
        fill: url(#_Безымянный_градиент_651-9);
      }

      .cls-3 {
        fill: url(#_Безымянный_градиент_651-17);
      }

      .cls-4 {
        fill: url(#_Безымянный_градиент_651-16);
      }

      .cls-5 {
        fill: url(#_Безымянный_градиент_651-24);
      }

      .cls-6 {
        fill: url(#_Безымянный_градиент_649-7);
      }

      .cls-7 {
        fill: url(#_Безымянный_градиент_6-2);
      }

      .cls-8 {
        fill: url(#_Безымянный_градиент_6-4);
      }

      .cls-9 {
        fill: url(#_Безымянный_градиент_651-3);
      }

      .cls-10 {
        fill: url(#_Безымянный_градиент_651-2);
      }

      .cls-11 {
        fill: url(#_Безымянный_градиент_651);
      }

      .cls-12 {
        fill: #fff;
      }

      .cls-13 {
        fill: url(#_Безымянный_градиент_651-22);
      }

      .cls-14 {
        fill: url(#_Безымянный_градиент_651-13);
      }

      .cls-15 {
        fill: url(#_Безымянный_градиент_651-5);
      }

      .cls-16 {
        fill: #0a305c;
      }

      .cls-17 {
        fill: url(#_Безымянный_градиент_651-19);
      }

      .cls-18 {
        fill: url(#_Безымянный_градиент_651-21);
      }

      .cls-19 {
        fill: url(#_Безымянный_градиент_6-3);
      }

      .cls-20 {
        fill: url(#_Безымянный_градиент_649);
      }

      .cls-21 {
        fill: url(#_Безымянный_градиент_651-14);
      }

      .cls-22 {
        fill: url(#_Безымянный_градиент_651-15);
      }

      .cls-23 {
        fill: url(#_Безымянный_градиент_649-5);
      }

      .cls-24 {
        fill: url(#_Безымянный_градиент_651-18);
      }

      .cls-25 {
        fill: url(#_Безымянный_градиент_649-2);
      }

      .cls-26 {
        fill: url(#_Безымянный_градиент_651-11);
      }

      .cls-27 {
        fill: url(#_Безымянный_градиент_651-10);
      }

      .cls-28 {
        fill: url(#_Безымянный_градиент_651-6);
      }

      .cls-29 {
        fill: url(#_Безымянный_градиент_651-25);
      }

      .cls-30 {
        fill: url(#_Безымянный_градиент_651-27);
      }

      .cls-31 {
        fill: url(#_Безымянный_градиент_651-4);
      }

      .cls-32 {
        fill: url(#_Безымянный_градиент_649-3);
      }

      .cls-33 {
        fill: url(#_Безымянный_градиент_651-20);
      }

      .cls-34 {
        fill: url(#_Безымянный_градиент_651-7);
      }

      .cls-35 {
        fill: url(#_Безымянный_градиент_649-6);
      }

      .cls-36 {
        fill: url(#_Безымянный_градиент_649-4);
      }

      .cls-37 {
        fill: url(#_Безымянный_градиент_651-12);
      }

      .cls-38 {
        fill: url(#_Безымянный_градиент_651-8);
      }

      .cls-39 {
        fill: url(#_Безымянный_градиент_651-26);
      }

      .cls-40 {
        fill: url(#_Безымянный_градиент_6);
      }

      .cls-41 {
        fill: url(#_Безымянный_градиент_651-28);
      }
    </style>
    <linearGradient id="_Безымянный_градиент_651" data-name="Безымянный градиент 651" x1="849.27" y1="919.41" x2="1015.04" y2="919.41" gradientUnits="userSpaceOnUse">
      <stop offset="0" stop-color="#e2aa56"/>
      <stop offset=".3" stop-color="#d98407"/>
      <stop offset=".36" stop-color="#da8811"/>
      <stop offset=".64" stop-color="#de9c3a"/>
      <stop offset=".87" stop-color="#e1a853"/>
      <stop offset="1" stop-color="#e3ad5d"/>
    </linearGradient>
    <linearGradient id="_Безымянный_градиент_651-2" data-name="Безымянный градиент 651" x2="1015.04" xlink:href="#_Безымянный_градиент_651"/>
    <linearGradient id="_Безымянный_градиент_651-3" data-name="Безымянный градиент 651" x1="849.27" x2="1015.04" xlink:href="#_Безымянный_градиент_651"/>
    <linearGradient id="_Безымянный_градиент_651-4" data-name="Безымянный градиент 651" x1="849.27" x2="1015.04" xlink:href="#_Безымянный_градиент_651"/>
    <linearGradient id="_Безымянный_градиент_651-5" data-name="Безымянный градиент 651" x1="849.27" x2="1015.04" xlink:href="#_Безымянный_градиент_651"/>
    <linearGradient id="_Безымянный_градиент_651-6" data-name="Безымянный градиент 651" x1="849.27" x2="1015.04" xlink:href="#_Безымянный_градиент_651"/>
    <linearGradient id="_Безымянный_градиент_651-7" data-name="Безымянный градиент 651" x1="849.27" y1="927.81" x2="1015.04" y2="927.81" xlink:href="#_Безымянный_градиент_651"/>
    <linearGradient id="_Безымянный_градиент_649" data-name="Безымянный градиент 649" x1="621.99" y1="665.38" x2="857.95" y2="474.03" gradientUnits="userSpaceOnUse">
      <stop offset="0" stop-color="#e3ad5d"/>
      <stop offset=".13" stop-color="#e1a853"/>
      <stop offset=".36" stop-color="#de9c3a"/>
      <stop offset=".64" stop-color="#da8811"/>
      <stop offset=".7" stop-color="#d98407"/>
      <stop offset="1" stop-color="#e2aa56"/>
    </linearGradient>
    <linearGradient id="_Безымянный_градиент_651-8" data-name="Безымянный градиент 651" x1="2160.29" y1="727.89" x2="2326.06" y2="727.89" xlink:href="#_Безымянный_градиент_651"/>
    <linearGradient id="_Безымянный_градиент_651-9" data-name="Безымянный градиент 651" x1="2160.29" y1="727.89" x2="2326.06" y2="727.89" xlink:href="#_Безымянный_градиент_651"/>
    <linearGradient id="_Безымянный_градиент_651-10" data-name="Безымянный градиент 651" x1="2160.29" y1="727.89" x2="2326.06" y2="727.89" xlink:href="#_Безымянный_градиент_651"/>
    <linearGradient id="_Безымянный_градиент_651-11" data-name="Безымянный градиент 651" x1="2160.29" y1="727.89" x2="2326.06" y2="727.89" xlink:href="#_Безымянный_градиент_651"/>
    <linearGradient id="_Безымянный_градиент_651-12" data-name="Безымянный градиент 651" x1="2160.29" y1="727.89" x2="2326.06" y2="727.89" xlink:href="#_Безымянный_градиент_651"/>
    <linearGradient id="_Безымянный_градиент_651-13" data-name="Безымянный градиент 651" x1="2160.29" y1="727.89" x2="2326.06" y2="727.89" xlink:href="#_Безымянный_градиент_651"/>
    <linearGradient id="_Безымянный_градиент_651-14" data-name="Безымянный градиент 651" x1="2160.29" y1="736.29" x2="2326.06" y2="736.29" xlink:href="#_Безымянный_градиент_651"/>
    <linearGradient id="_Безымянный_градиент_649-2" data-name="Безымянный градиент 649" x1="587.04" y1="2089.76" x2="953.5" y2="1792.58" xlink:href="#_Безымянный_градиент_649"/>
    <linearGradient id="_Безымянный_градиент_6" data-name="Безымянный градиент 6" x1="1656.77" y1="1983.4" x2="2017.21" y2="1887.99" gradientUnits="userSpaceOnUse">
      <stop offset="0" stop-color="#e2aa56"/>
      <stop offset=".3" stop-color="#d98407"/>
      <stop offset=".36" stop-color="#da8811"/>
      <stop offset=".64" stop-color="#de9c3a"/>
      <stop offset=".87" stop-color="#e1a853"/>
      <stop offset="1" stop-color="#e3ad5d"/>
    </linearGradient>
    <linearGradient id="_Безымянный_градиент_6-2" data-name="Безымянный градиент 6" x1="1663.52" y1="2008.89" x2="2023.96" y2="1913.48" xlink:href="#_Безымянный_градиент_6"/>
    <linearGradient id="_Безымянный_градиент_6-3" data-name="Безымянный градиент 6" x1="1668.3" y1="2026.93" x2="2028.74" y2="1931.52" xlink:href="#_Безымянный_градиент_6"/>
    <linearGradient id="_Безымянный_градиент_6-4" data-name="Безымянный градиент 6" x1="1671.93" y1="2040.66" x2="2032.37" y2="1945.25" xlink:href="#_Безымянный_градиент_6"/>
    <linearGradient id="_Безымянный_градиент_651-15" data-name="Безымянный градиент 651" x1="2160.29" y1="2034.49" x2="2326.06" y2="2034.49" xlink:href="#_Безымянный_градиент_651"/>
    <linearGradient id="_Безымянный_градиент_651-16" data-name="Безымянный градиент 651" x1="2160.29" y1="2034.49" x2="2326.06" y2="2034.49" xlink:href="#_Безымянный_градиент_651"/>
    <linearGradient id="_Безымянный_градиент_651-17" data-name="Безымянный градиент 651" x1="2160.29" y1="2034.49" x2="2326.06" y2="2034.49" xlink:href="#_Безымянный_градиент_651"/>
    <linearGradient id="_Безымянный_градиент_651-18" data-name="Безымянный градиент 651" x1="2160.29" y1="2034.49" x2="2326.06" y2="2034.49" xlink:href="#_Безымянный_градиент_651"/>
    <linearGradient id="_Безымянный_градиент_651-19" data-name="Безымянный градиент 651" x1="2160.29" y1="2034.49" x2="2326.06" y2="2034.49" xlink:href="#_Безымянный_градиент_651"/>
    <linearGradient id="_Безымянный_градиент_651-20" data-name="Безымянный градиент 651" x1="2160.29" y1="2034.49" x2="2326.06" y2="2034.49" xlink:href="#_Безымянный_градиент_651"/>
    <linearGradient id="_Безымянный_градиент_651-21" data-name="Безымянный градиент 651" x1="2160.29" y1="2042.89" x2="2326.06" y2="2042.89" xlink:href="#_Безымянный_градиент_651"/>
    <linearGradient id="_Безымянный_градиент_649-3" data-name="Безымянный градиент 649" x1="2021.66" y1="3203.31" x2="1645.31" y2="3325.22" xlink:href="#_Безымянный_градиент_649"/>
    <linearGradient id="_Безымянный_градиент_649-4" data-name="Безымянный градиент 649" x1="2031.44" y1="3233.52" x2="1655.1" y2="3355.43" xlink:href="#_Безымянный_градиент_649"/>
    <linearGradient id="_Безымянный_градиент_649-5" data-name="Безымянный градиент 649" x1="2038.37" y1="3254.9" x2="1662.03" y2="3376.81" xlink:href="#_Безымянный_градиент_649"/>
    <linearGradient id="_Безымянный_градиент_649-6" data-name="Безымянный градиент 649" x1="2043.64" y1="3271.17" x2="1667.3" y2="3393.09" xlink:href="#_Безымянный_градиент_649"/>
    <linearGradient id="_Безымянный_градиент_651-22" data-name="Безымянный градиент 651" x1="946.48" y1="3353.08" x2="1112.26" y2="3353.08" xlink:href="#_Безымянный_градиент_651"/>
    <linearGradient id="_Безымянный_градиент_651-23" data-name="Безымянный градиент 651" x1="946.48" y1="3353.08" x2="1112.26" y2="3353.08" xlink:href="#_Безымянный_градиент_651"/>
    <linearGradient id="_Безымянный_градиент_651-24" data-name="Безымянный градиент 651" x1="946.48" y1="3353.08" x2="1112.26" y2="3353.08" xlink:href="#_Безымянный_градиент_651"/>
    <linearGradient id="_Безымянный_градиент_651-25" data-name="Безымянный градиент 651" x1="946.48" y1="3353.08" x2="1112.26" y2="3353.08" xlink:href="#_Безымянный_градиент_651"/>
    <linearGradient id="_Безымянный_градиент_651-26" data-name="Безымянный градиент 651" x1="946.48" y1="3353.08" x2="1112.26" y2="3353.08" xlink:href="#_Безымянный_градиент_651"/>
    <linearGradient id="_Безымянный_градиент_651-27" data-name="Безымянный градиент 651" x1="946.48" y1="3353.08" x2="1112.26" y2="3353.08" xlink:href="#_Безымянный_градиент_651"/>
    <linearGradient id="_Безымянный_градиент_651-28" data-name="Безымянный градиент 651" x1="946.48" y1="3361.47" x2="1112.26" y2="3361.47" xlink:href="#_Безымянный_градиент_651"/>
    <linearGradient id="_Безымянный_градиент_649-7" data-name="Безымянный градиент 649" x1="316.13" y1="3334.87" x2="433.16" y2="3239.96" xlink:href="#_Безымянный_градиент_649"/>
  </defs>
  <rect class="cls-16" x="1368.97" y="55.66" width="1250.94" height="1250.94"/>
  <rect class="cls-16" x="57.96" y="1362.26" width="1250.94" height="1250.94"/>
  <rect class="cls-16" x="1368.97" y="1362.26" width="1250.94" height="1250.94"/>
  <rect class="cls-16" x="57.96" y="2676.81" width="1250.94" height="1250.94"/>
  <rect class="cls-16" x="1368.97" y="2676.81" width="1250.94" height="1250.94"/>
  <rect class="cls-16" x="57.96" y="55.66" width="1250.94" height="1250.94"/>
  <g>
    <path class="cls-12" d="M360.73,815.89h17.1l13.58,49.28,16.25-49.28h17.1l16.25,49.28,13.58-49.28h17.1l-22.24,73.44h-15.82l-17.32-50.46-17.42,50.46h-15.93l-22.24-73.44Z"/>
    <path class="cls-12" d="M495.69,830.11v14.65h36.88v14.22h-36.88v16.14h40.73v14.22h-56.55v-73.44h56.55v14.22h-40.73Z"/>
    <path class="cls-12" d="M594.17,889.33l-16.78-23.84h-11.65v23.84h-15.71v-73.44h33.03c15.93,0,27.69,10.26,27.69,24.8,0,10.9-6.63,19.46-16.68,22.98l18.07,25.66h-17.96ZM565.73,851.06h15.61c7.8,0,13.15-4.06,13.15-10.37s-5.35-10.37-13.15-10.37h-15.61v20.74Z"/>
    <path class="cls-12" d="M640.12,830.11h-22.88v-14.22h61.58v14.22h-22.88v59.22h-15.82v-59.22Z"/>
    <path class="cls-12" d="M683.06,878.43l9.09-10.8c6.95,5.99,14.86,9.62,24.16,9.62,7.91,0,11.97-3.63,11.97-8.23,0-5.24-4.28-6.84-15.5-9.41-15.5-3.53-26.51-7.91-26.51-22.13s11.12-22.88,27.15-22.88c11.97,0,21.27,3.74,28.76,10.16l-8.23,11.33c-6.52-5.24-13.9-8.12-20.95-8.12s-10.8,3.53-10.8,7.91c0,5.35,4.38,7.06,15.71,9.62,15.82,3.53,26.3,8.23,26.3,21.81s-10.58,23.3-28.54,23.3c-12.72,0-24.05-4.28-32.61-12.19Z"/>
    <path class="cls-12" d="M773.1,830.11h-22.88v-14.22h61.58v14.22h-22.88v59.22h-15.82v-59.22Z"/>
    <path class="cls-12" d="M860.24,877.79h-32.71l-4.7,11.55h-17.64l29.93-73.44h17.64l29.93,73.44h-17.75l-4.7-11.55ZM854.79,864.43l-10.9-26.83-10.9,26.83h21.81Z"/>
    <path class="cls-12" d="M899.06,830.11h-22.88v-14.22h61.58v14.22h-22.88v59.22h-15.82v-59.22Z"/>
    <path class="cls-12" d="M967.42,830.11h-22.88v-14.22h61.58v14.22h-22.88v59.22h-15.82v-59.22Z"/>
    <path class="cls-12" d="M390.99,926.89h-9.71l-1.4,3.43h-5.24l8.89-21.81h5.24l8.89,21.81h-5.27l-1.4-3.43ZM389.37,922.92l-3.24-7.97-3.24,7.97h6.48Z"/>
    <path class="cls-12" d="M400.38,908.51h4.67l10.51,14.09v-14.09h4.7v21.81h-4.7l-10.51-14.09v14.09h-4.67v-21.81Z"/>
    <path class="cls-12" d="M425.38,908.51h7.81c7.33,0,12.54,4.51,12.54,10.89s-5.21,10.92-12.54,10.92h-7.81v-21.81ZM433.79,926.07c4.16,0,7.11-2.76,7.11-6.67s-2.95-6.63-7.11-6.63h-3.75v13.3h3.75Z"/>
    <path class="cls-12" d="M454.32,912.73v4.35h10.95v4.22h-10.95v4.79h12.09v4.22h-16.79v-21.81h16.79v4.22h-12.09Z"/>
    <path class="cls-12" d="M483.86,930.32l-4.98-7.08h-3.46v7.08h-4.67v-21.81h9.81c4.73,0,8.22,3.05,8.22,7.36,0,3.24-1.97,5.78-4.95,6.83l5.37,7.62h-5.33ZM475.42,918.95h4.63c2.32,0,3.9-1.21,3.9-3.08s-1.59-3.08-3.9-3.08h-4.63v6.16Z"/>
    <path class="cls-12" d="M497.44,912.73v4.35h10.95v4.22h-10.95v4.79h12.09v4.22h-16.79v-21.81h16.79v4.22h-12.09Z"/>
    <path class="cls-12" d="M543.72,908.51l-8.89,21.81h-5.24l-8.89-21.81h5.27l6.25,15.36,6.25-15.36h5.24Z"/>
    <path class="cls-12" d="M551.05,912.73v4.35h10.95v4.22h-10.95v4.79h12.09v4.22h-16.79v-21.81h16.79v4.22h-12.09Z"/>
    <path class="cls-12" d="M580.59,930.32l-4.98-7.08h-3.46v7.08h-4.67v-21.81h9.81c4.73,0,8.22,3.05,8.22,7.36,0,3.24-1.97,5.78-4.95,6.83l5.36,7.62h-5.33ZM572.14,918.95h4.63c2.32,0,3.9-1.21,3.9-3.08s-1.59-3.08-3.9-3.08h-4.63v6.16Z"/>
    <path class="cls-12" d="M587.67,927.08l2.7-3.21c2.06,1.78,4.41,2.86,7.17,2.86,2.35,0,3.56-1.08,3.56-2.44,0-1.56-1.27-2.03-4.6-2.79-4.6-1.05-7.87-2.35-7.87-6.57s3.3-6.79,8.06-6.79c3.56,0,6.32,1.11,8.54,3.02l-2.44,3.36c-1.94-1.56-4.13-2.41-6.22-2.41s-3.21,1.05-3.21,2.35c0,1.59,1.3,2.1,4.67,2.86,4.7,1.05,7.81,2.44,7.81,6.48s-3.14,6.92-8.48,6.92c-3.78,0-7.14-1.27-9.68-3.62Z"/>
    <path class="cls-12" d="M609.66,908.51h9.81c4.73,0,8.22,3.05,8.22,7.36s-3.49,7.36-8.22,7.36h-5.14v7.08h-4.67v-21.81ZM618.96,918.95c2.32,0,3.9-1.21,3.9-3.08s-1.59-3.08-3.9-3.08h-4.64v6.16h4.64Z"/>
    <path class="cls-12" d="M643.87,930.32l-4.98-7.08h-3.46v7.08h-4.67v-21.81h9.81c4.73,0,8.22,3.05,8.22,7.36,0,3.24-1.97,5.78-4.95,6.83l5.36,7.62h-5.33ZM635.42,918.95h4.63c2.32,0,3.9-1.21,3.9-3.08s-1.59-3.08-3.9-3.08h-4.63v6.16Z"/>
    <path class="cls-12" d="M657.44,912.73v4.35h10.95v4.22h-10.95v4.79h12.09v4.22h-16.79v-21.81h16.79v4.22h-12.09Z"/>
    <path class="cls-12" d="M672.32,919.4c0-6.13,5.33-11.27,11.59-11.27,3.3,0,6.35,1.4,8.48,3.65l-3.4,3.05c-1.27-1.46-3.08-2.44-5.08-2.44-3.65,0-6.76,3.24-6.76,7.02s3.11,7.05,6.76,7.05c2,0,3.81-.98,5.08-2.44l3.4,3.05c-2.13,2.22-5.17,3.65-8.48,3.65-6.25,0-11.59-5.17-11.59-11.3Z"/>
    <path class="cls-12" d="M714.7,908.51v21.81h-4.67v-9.02h-9.94v9.02h-4.67v-21.81h4.67v8.57h9.94v-8.57h4.67Z"/>
    <path class="cls-12" d="M724.34,912.73v4.35h10.95v4.22h-10.95v4.79h12.09v4.22h-16.79v-21.81h16.79v4.22h-12.09Z"/>
    <path class="cls-12" d="M740.87,908.51h4.67l10.51,14.09v-14.09h4.7v21.81h-4.7l-10.51-14.09v14.09h-4.67v-21.81Z"/>
    <path class="cls-12" d="M765.36,927.75c0-1.49,1.3-2.83,2.95-2.83,1.56,0,2.83,1.33,2.83,2.83,0,1.62-1.27,2.95-2.83,2.95-1.65,0-2.95-1.33-2.95-2.95Z"/>
    <path class="cls-12" d="M782.84,908.51h5.08l4.03,14.63,4.82-14.63h5.08l4.83,14.63,4.03-14.63h5.08l-6.6,21.81h-4.7l-5.14-14.98-5.17,14.98h-4.73l-6.6-21.81Z"/>
    <path class="cls-12" d="M818.6,908.51h4.7v21.81h-4.7v-21.81Z"/>
    <path class="cls-12" d="M841.31,930.32l-4.98-7.08h-3.46v7.08h-4.67v-21.81h9.81c4.73,0,8.22,3.05,8.22,7.36,0,3.24-1.97,5.78-4.95,6.83l5.36,7.62h-5.33ZM832.86,918.95h4.63c2.32,0,3.9-1.21,3.9-3.08s-1.59-3.08-3.9-3.08h-4.63v6.16Z"/>
    <path class="cls-11" d="M878.35,908.51v21.81h-4.67v-9.02h-9.94v9.02h-4.67v-21.81h4.67v8.57h9.94v-8.57h4.67Z"/>
    <path class="cls-10" d="M897.31,926.89h-9.71l-1.4,3.43h-5.24l8.89-21.81h5.24l8.89,21.81h-5.27l-1.4-3.43ZM895.69,922.92l-3.24-7.97-3.24,7.97h6.48Z"/>
    <path class="cls-9" d="M922.09,926.1v4.22h-15.55v-21.81h4.7v17.59h10.86Z"/>
    <path class="cls-31" d="M927.62,912.73h-6.79v-4.22h18.28v4.22h-6.79v17.59h-4.7v-17.59Z"/>
    <path class="cls-15" d="M946.7,912.73v4.35h10.95v4.22h-10.95v4.79h12.09v4.22h-16.79v-21.81h16.79v4.22h-12.09Z"/>
    <path class="cls-28" d="M963.22,908.51h4.67l10.51,14.09v-14.09h4.7v21.81h-4.7l-10.51-14.09v14.09h-4.67v-21.81Z"/>
    <path class="cls-34" d="M987.71,927.75c0-1.49,1.3-2.83,2.95-2.83,1.56,0,2.83,1.33,2.83,2.83,0,1.62-1.27,2.95-2.83,2.95-1.65,0-2.95-1.33-2.95-2.95Z"/>
    <g>
      <path class="cls-12" d="M834.82,431.56c-66.67,51.58-135.38,175.66-135.38,175.66l-6.35,11.27-16.63-30.45c6.68-11.68,29.3-50.52,53.21-83.07,28.51-38.82,64.24-73.41,64.24-73.41h-277.99v336.26h336.26v-336.26h-17.36ZM633.83,723.67l-74.89-133.06h33.44l41.45,72.83,12.11-21.42,16.8,30.35-28.9,51.3Z"/>
      <path class="cls-20" d="M792.46,519.26c-6.09,7.92-11.74,16.17-16.96,24.68l-25.63,41.77-44.21,77.82-10.94-18.31h0l-32.22-58.59.02-.03-.52-.87h0s-20.6-34.74-20.6-34.74h-33.45l37.48,64.77,31.45,57.7v.02s28.33,50.2,28.33,50.2l76.71-134.42s14.58-25.23,32.13-50.63c8.87-12.85,18.51-25.74,27.4-35.43l10.73-11.74-.02-38.61-10.72,11.24s-27.45,27.18-48.99,55.19Z"/>
    </g>
  </g>
  <g>
    <path class="cls-12" d="M1671.75,624.37h17.1l13.58,49.28,16.25-49.28h17.1l16.25,49.28,13.58-49.28h17.1l-22.24,73.44h-15.82l-17.32-50.46-17.42,50.46h-15.93l-22.24-73.44Z"/>
    <path class="cls-12" d="M1806.71,638.58v14.65h36.88v14.22h-36.88v16.14h40.73v14.22h-56.55v-73.44h56.55v14.22h-40.73Z"/>
    <path class="cls-12" d="M1905.19,697.81l-16.78-23.84h-11.65v23.84h-15.71v-73.44h33.03c15.93,0,27.69,10.26,27.69,24.8,0,10.9-6.63,19.46-16.68,22.98l18.07,25.66h-17.96ZM1876.75,659.54h15.61c7.8,0,13.15-4.06,13.15-10.37s-5.35-10.37-13.15-10.37h-15.61v20.74Z"/>
    <path class="cls-12" d="M1951.13,638.58h-22.88v-14.22h61.58v14.22h-22.88v59.22h-15.82v-59.22Z"/>
    <path class="cls-12" d="M1994.08,686.9l9.09-10.8c6.95,5.99,14.86,9.62,24.16,9.62,7.91,0,11.97-3.63,11.97-8.23,0-5.24-4.28-6.84-15.5-9.41-15.5-3.53-26.51-7.91-26.51-22.13s11.12-22.88,27.15-22.88c11.97,0,21.27,3.74,28.76,10.16l-8.23,11.33c-6.52-5.24-13.9-8.12-20.95-8.12s-10.8,3.53-10.8,7.91c0,5.35,4.38,7.06,15.71,9.62,15.82,3.53,26.3,8.23,26.3,21.81s-10.58,23.3-28.54,23.3c-12.72,0-24.05-4.28-32.61-12.19Z"/>
    <path class="cls-12" d="M2084.12,638.58h-22.88v-14.22h61.58v14.22h-22.88v59.22h-15.82v-59.22Z"/>
    <path class="cls-12" d="M2171.26,686.26h-32.71l-4.7,11.55h-17.64l29.93-73.44h17.64l29.93,73.44h-17.75l-4.7-11.55ZM2165.81,672.9l-10.9-26.83-10.9,26.83h21.81Z"/>
    <path class="cls-12" d="M2210.08,638.58h-22.88v-14.22h61.58v14.22h-22.88v59.22h-15.82v-59.22Z"/>
    <path class="cls-12" d="M2278.44,638.58h-22.88v-14.22h61.58v14.22h-22.88v59.22h-15.82v-59.22Z"/>
    <path class="cls-12" d="M1702.01,735.36h-9.71l-1.4,3.43h-5.24l8.89-21.81h5.24l8.89,21.81h-5.27l-1.4-3.43ZM1700.39,731.4l-3.24-7.97-3.24,7.97h6.48Z"/>
    <path class="cls-12" d="M1711.4,716.99h4.67l10.51,14.09v-14.09h4.7v21.81h-4.7l-10.51-14.09v14.09h-4.67v-21.81Z"/>
    <path class="cls-12" d="M1736.4,716.99h7.81c7.33,0,12.54,4.51,12.54,10.89s-5.21,10.92-12.54,10.92h-7.81v-21.81ZM1744.81,734.54c4.16,0,7.11-2.76,7.11-6.67s-2.95-6.63-7.11-6.63h-3.75v13.3h3.75Z"/>
    <path class="cls-12" d="M1765.34,721.21v4.35h10.95v4.22h-10.95v4.79h12.09v4.22h-16.79v-21.81h16.79v4.22h-12.09Z"/>
    <path class="cls-12" d="M1794.88,738.79l-4.98-7.08h-3.46v7.08h-4.67v-21.81h9.81c4.73,0,8.22,3.05,8.22,7.36,0,3.24-1.97,5.78-4.95,6.83l5.37,7.62h-5.33ZM1786.44,727.43h4.63c2.32,0,3.9-1.21,3.9-3.08s-1.59-3.08-3.9-3.08h-4.63v6.16Z"/>
    <path class="cls-12" d="M1808.46,721.21v4.35h10.95v4.22h-10.95v4.79h12.09v4.22h-16.79v-21.81h16.79v4.22h-12.09Z"/>
    <path class="cls-12" d="M1854.73,716.99l-8.89,21.81h-5.24l-8.89-21.81h5.27l6.25,15.36,6.25-15.36h5.24Z"/>
    <path class="cls-12" d="M1862.07,721.21v4.35h10.95v4.22h-10.95v4.79h12.09v4.22h-16.79v-21.81h16.79v4.22h-12.09Z"/>
    <path class="cls-12" d="M1891.61,738.79l-4.98-7.08h-3.46v7.08h-4.67v-21.81h9.81c4.73,0,8.22,3.05,8.22,7.36,0,3.24-1.97,5.78-4.95,6.83l5.36,7.62h-5.33ZM1883.16,727.43h4.63c2.32,0,3.9-1.21,3.9-3.08s-1.59-3.08-3.9-3.08h-4.63v6.16Z"/>
    <path class="cls-12" d="M1898.69,735.56l2.7-3.21c2.06,1.78,4.41,2.86,7.17,2.86,2.35,0,3.56-1.08,3.56-2.44,0-1.56-1.27-2.03-4.6-2.79-4.6-1.05-7.87-2.35-7.87-6.57s3.3-6.79,8.06-6.79c3.56,0,6.32,1.11,8.54,3.02l-2.44,3.36c-1.94-1.56-4.13-2.41-6.22-2.41s-3.21,1.05-3.21,2.35c0,1.59,1.3,2.1,4.67,2.86,4.7,1.05,7.81,2.44,7.81,6.48s-3.14,6.92-8.48,6.92c-3.78,0-7.14-1.27-9.68-3.62Z"/>
    <path class="cls-12" d="M1920.67,716.99h9.81c4.73,0,8.22,3.05,8.22,7.36s-3.49,7.36-8.22,7.36h-5.14v7.08h-4.67v-21.81ZM1929.98,727.43c2.32,0,3.9-1.21,3.9-3.08s-1.59-3.08-3.9-3.08h-4.64v6.16h4.64Z"/>
    <path class="cls-12" d="M1954.88,738.79l-4.98-7.08h-3.46v7.08h-4.67v-21.81h9.81c4.73,0,8.22,3.05,8.22,7.36,0,3.24-1.97,5.78-4.95,6.83l5.36,7.62h-5.33ZM1946.44,727.43h4.63c2.32,0,3.9-1.21,3.9-3.08s-1.59-3.08-3.9-3.08h-4.63v6.16Z"/>
    <path class="cls-12" d="M1968.46,721.21v4.35h10.95v4.22h-10.95v4.79h12.09v4.22h-16.79v-21.81h16.79v4.22h-12.09Z"/>
    <path class="cls-12" d="M1983.34,727.87c0-6.13,5.33-11.27,11.59-11.27,3.3,0,6.35,1.4,8.48,3.65l-3.4,3.05c-1.27-1.46-3.08-2.44-5.08-2.44-3.65,0-6.76,3.24-6.76,7.02s3.11,7.05,6.76,7.05c2,0,3.81-.98,5.08-2.44l3.4,3.05c-2.13,2.22-5.17,3.65-8.48,3.65-6.25,0-11.59-5.17-11.59-11.3Z"/>
    <path class="cls-12" d="M2025.72,716.99v21.81h-4.67v-9.02h-9.94v9.02h-4.67v-21.81h4.67v8.57h9.94v-8.57h4.67Z"/>
    <path class="cls-12" d="M2035.36,721.21v4.35h10.95v4.22h-10.95v4.79h12.09v4.22h-16.79v-21.81h16.79v4.22h-12.09Z"/>
    <path class="cls-12" d="M2051.89,716.99h4.67l10.51,14.09v-14.09h4.7v21.81h-4.7l-10.51-14.09v14.09h-4.67v-21.81Z"/>
    <path class="cls-12" d="M2076.37,736.22c0-1.49,1.3-2.83,2.95-2.83,1.56,0,2.83,1.33,2.83,2.83,0,1.62-1.27,2.95-2.83,2.95-1.65,0-2.95-1.33-2.95-2.95Z"/>
    <path class="cls-12" d="M2093.86,716.99h5.08l4.03,14.63,4.82-14.63h5.08l4.83,14.63,4.03-14.63h5.08l-6.6,21.81h-4.7l-5.14-14.98-5.17,14.98h-4.73l-6.6-21.81Z"/>
    <path class="cls-12" d="M2129.62,716.99h4.7v21.81h-4.7v-21.81Z"/>
    <path class="cls-12" d="M2152.32,738.79l-4.98-7.08h-3.46v7.08h-4.67v-21.81h9.81c4.73,0,8.22,3.05,8.22,7.36,0,3.24-1.97,5.78-4.95,6.83l5.36,7.62h-5.33ZM2143.88,727.43h4.63c2.32,0,3.9-1.21,3.9-3.08s-1.59-3.08-3.9-3.08h-4.63v6.16Z"/>
    <path class="cls-38" d="M2189.36,716.99v21.81h-4.67v-9.02h-9.94v9.02h-4.67v-21.81h4.67v8.57h9.94v-8.57h4.67Z"/>
    <path class="cls-2" d="M2208.33,735.36h-9.71l-1.4,3.43h-5.24l8.89-21.81h5.24l8.89,21.81h-5.27l-1.4-3.43ZM2206.71,731.4l-3.24-7.97-3.24,7.97h6.48Z"/>
    <path class="cls-27" d="M2233.11,734.57v4.22h-15.55v-21.81h4.7v17.59h10.86Z"/>
    <path class="cls-26" d="M2238.63,721.21h-6.79v-4.22h18.28v4.22h-6.79v17.59h-4.7v-17.59Z"/>
    <path class="cls-37" d="M2257.72,721.21v4.35h10.95v4.22h-10.95v4.79h12.09v4.22h-16.79v-21.81h16.79v4.22h-12.09Z"/>
    <path class="cls-14" d="M2274.24,716.99h4.67l10.51,14.09v-14.09h4.7v21.81h-4.7l-10.51-14.09v14.09h-4.67v-21.81Z"/>
    <path class="cls-21" d="M2298.73,736.22c0-1.49,1.3-2.83,2.95-2.83,1.56,0,2.83,1.33,2.83,2.83,0,1.62-1.27,2.95-2.83,2.95-1.65,0-2.95-1.33-2.95-2.95Z"/>
  </g>
  <g>
    <path class="cls-12" d="M917.59,1726.61c-103.55,80.11-210.26,272.82-210.26,272.82l-9.86,17.5-25.83-47.29c10.37-18.14,45.5-78.45,82.64-129.02,44.28-60.29,99.77-114.01,99.77-114.01h-431.74v522.23h522.23v-522.23h-26.95ZM605.43,2180.29l-116.31-206.65h51.93l64.38,113.1,18.8-33.26,26.09,47.13-44.89,79.68Z"/>
    <path class="cls-25" d="M851.79,1862.83c-9.46,12.3-18.23,25.11-26.34,38.33l-39.8,64.87-68.66,120.86-17-28.43h0l-50.04-91,.03-.05-.8-1.35h0s-31.99-53.96-31.99-53.96h-51.94l58.22,100.59,48.84,89.61-.02.03,44.02,77.97,119.14-208.77s22.64-39.18,49.89-78.63c13.78-19.95,28.74-39.97,42.55-55.03l16.67-18.24-.02-59.96-16.64,17.46s-42.63,42.21-76.08,85.71Z"/>
  </g>
  <g>
    <path class="cls-40" d="M1671.75,1930.97h17.1l13.58,49.28,16.25-49.28h17.1l16.25,49.28,13.58-49.28h17.1l-22.24,73.44h-15.82l-17.32-50.46-17.42,50.46h-15.93l-22.24-73.44Z"/>
    <path class="cls-7" d="M1806.71,1945.19v14.65h36.88v14.22h-36.88v16.14h40.73v14.22h-56.55v-73.44h56.55v14.22h-40.73Z"/>
    <path class="cls-19" d="M1905.19,2004.41l-16.78-23.84h-11.65v23.84h-15.71v-73.44h33.03c15.93,0,27.69,10.26,27.69,24.8,0,10.9-6.63,19.46-16.68,22.98l18.07,25.66h-17.96ZM1876.75,1966.14h15.61c7.8,0,13.15-4.06,13.15-10.37s-5.35-10.37-13.15-10.37h-15.61v20.74Z"/>
    <path class="cls-8" d="M1951.13,1945.19h-22.88v-14.22h61.58v14.22h-22.88v59.22h-15.82v-59.22Z"/>
    <path class="cls-12" d="M1994.08,1993.51l9.09-10.8c6.95,5.99,14.86,9.62,24.16,9.62,7.91,0,11.97-3.63,11.97-8.23,0-5.24-4.28-6.84-15.5-9.41-15.5-3.53-26.51-7.91-26.51-22.13s11.12-22.88,27.15-22.88c11.97,0,21.27,3.74,28.76,10.16l-8.23,11.33c-6.52-5.24-13.9-8.12-20.95-8.12s-10.8,3.53-10.8,7.91c0,5.35,4.38,7.06,15.71,9.62,15.82,3.53,26.3,8.23,26.3,21.81s-10.58,23.3-28.54,23.3c-12.72,0-24.05-4.28-32.61-12.19Z"/>
    <path class="cls-12" d="M2084.12,1945.19h-22.88v-14.22h61.58v14.22h-22.88v59.22h-15.82v-59.22Z"/>
    <path class="cls-12" d="M2171.26,1992.86h-32.71l-4.7,11.55h-17.64l29.93-73.44h17.64l29.93,73.44h-17.75l-4.7-11.55ZM2165.81,1979.5l-10.9-26.83-10.9,26.83h21.81Z"/>
    <path class="cls-12" d="M2210.08,1945.19h-22.88v-14.22h61.58v14.22h-22.88v59.22h-15.82v-59.22Z"/>
    <path class="cls-12" d="M2278.44,1945.19h-22.88v-14.22h61.58v14.22h-22.88v59.22h-15.82v-59.22Z"/>
    <path class="cls-12" d="M1702.01,2041.97h-9.71l-1.4,3.43h-5.24l8.89-21.81h5.24l8.89,21.81h-5.27l-1.4-3.43ZM1700.39,2038l-3.24-7.97-3.24,7.97h6.48Z"/>
    <path class="cls-12" d="M1711.4,2023.59h4.67l10.51,14.09v-14.09h4.7v21.81h-4.7l-10.51-14.09v14.09h-4.67v-21.81Z"/>
    <path class="cls-12" d="M1736.4,2023.59h7.81c7.33,0,12.54,4.51,12.54,10.89s-5.21,10.92-12.54,10.92h-7.81v-21.81ZM1744.81,2041.14c4.16,0,7.11-2.76,7.11-6.67s-2.95-6.63-7.11-6.63h-3.75v13.3h3.75Z"/>
    <path class="cls-12" d="M1765.34,2027.81v4.35h10.95v4.22h-10.95v4.79h12.09v4.22h-16.79v-21.81h16.79v4.22h-12.09Z"/>
    <path class="cls-12" d="M1794.88,2045.39l-4.98-7.08h-3.46v7.08h-4.67v-21.81h9.81c4.73,0,8.22,3.05,8.22,7.36,0,3.24-1.97,5.78-4.95,6.83l5.37,7.62h-5.33ZM1786.44,2034.03h4.63c2.32,0,3.9-1.21,3.9-3.08s-1.59-3.08-3.9-3.08h-4.63v6.16Z"/>
    <path class="cls-12" d="M1808.46,2027.81v4.35h10.95v4.22h-10.95v4.79h12.09v4.22h-16.79v-21.81h16.79v4.22h-12.09Z"/>
    <path class="cls-12" d="M1854.73,2023.59l-8.89,21.81h-5.24l-8.89-21.81h5.27l6.25,15.36,6.25-15.36h5.24Z"/>
    <path class="cls-12" d="M1862.07,2027.81v4.35h10.95v4.22h-10.95v4.79h12.09v4.22h-16.79v-21.81h16.79v4.22h-12.09Z"/>
    <path class="cls-12" d="M1891.61,2045.39l-4.98-7.08h-3.46v7.08h-4.67v-21.81h9.81c4.73,0,8.22,3.05,8.22,7.36,0,3.24-1.97,5.78-4.95,6.83l5.36,7.62h-5.33ZM1883.16,2034.03h4.63c2.32,0,3.9-1.21,3.9-3.08s-1.59-3.08-3.9-3.08h-4.63v6.16Z"/>
    <path class="cls-12" d="M1898.69,2042.16l2.7-3.21c2.06,1.78,4.41,2.86,7.17,2.86,2.35,0,3.56-1.08,3.56-2.44,0-1.56-1.27-2.03-4.6-2.79-4.6-1.05-7.87-2.35-7.87-6.57s3.3-6.79,8.06-6.79c3.56,0,6.32,1.11,8.54,3.02l-2.44,3.36c-1.94-1.56-4.13-2.41-6.22-2.41s-3.21,1.05-3.21,2.35c0,1.59,1.3,2.1,4.67,2.86,4.7,1.05,7.81,2.44,7.81,6.48s-3.14,6.92-8.48,6.92c-3.78,0-7.14-1.27-9.68-3.62Z"/>
    <path class="cls-12" d="M1920.67,2023.59h9.81c4.73,0,8.22,3.05,8.22,7.36s-3.49,7.36-8.22,7.36h-5.14v7.08h-4.67v-21.81ZM1929.98,2034.03c2.32,0,3.9-1.21,3.9-3.08s-1.59-3.08-3.9-3.08h-4.64v6.16h4.64Z"/>
    <path class="cls-12" d="M1954.88,2045.39l-4.98-7.08h-3.46v7.08h-4.67v-21.81h9.81c4.73,0,8.22,3.05,8.22,7.36,0,3.24-1.97,5.78-4.95,6.83l5.36,7.62h-5.33ZM1946.44,2034.03h4.63c2.32,0,3.9-1.21,3.9-3.08s-1.59-3.08-3.9-3.08h-4.63v6.16Z"/>
    <path class="cls-12" d="M1968.46,2027.81v4.35h10.95v4.22h-10.95v4.79h12.09v4.22h-16.79v-21.81h16.79v4.22h-12.09Z"/>
    <path class="cls-12" d="M1983.34,2034.47c0-6.13,5.33-11.27,11.59-11.27,3.3,0,6.35,1.4,8.48,3.65l-3.4,3.05c-1.27-1.46-3.08-2.44-5.08-2.44-3.65,0-6.76,3.24-6.76,7.02s3.11,7.05,6.76,7.05c2,0,3.81-.98,5.08-2.44l3.4,3.05c-2.13,2.22-5.17,3.65-8.48,3.65-6.25,0-11.59-5.17-11.59-11.3Z"/>
    <path class="cls-12" d="M2025.72,2023.59v21.81h-4.67v-9.02h-9.94v9.02h-4.67v-21.81h4.67v8.57h9.94v-8.57h4.67Z"/>
    <path class="cls-12" d="M2035.36,2027.81v4.35h10.95v4.22h-10.95v4.79h12.09v4.22h-16.79v-21.81h16.79v4.22h-12.09Z"/>
    <path class="cls-12" d="M2051.89,2023.59h4.67l10.51,14.09v-14.09h4.7v21.81h-4.7l-10.51-14.09v14.09h-4.67v-21.81Z"/>
    <path class="cls-12" d="M2076.37,2042.82c0-1.49,1.3-2.83,2.95-2.83,1.56,0,2.83,1.33,2.83,2.83,0,1.62-1.27,2.95-2.83,2.95-1.65,0-2.95-1.33-2.95-2.95Z"/>
    <path class="cls-12" d="M2093.86,2023.59h5.08l4.03,14.63,4.82-14.63h5.08l4.83,14.63,4.03-14.63h5.08l-6.6,21.81h-4.7l-5.14-14.98-5.17,14.98h-4.73l-6.6-21.81Z"/>
    <path class="cls-12" d="M2129.62,2023.59h4.7v21.81h-4.7v-21.81Z"/>
    <path class="cls-12" d="M2152.32,2045.39l-4.98-7.08h-3.46v7.08h-4.67v-21.81h9.81c4.73,0,8.22,3.05,8.22,7.36,0,3.24-1.97,5.78-4.95,6.83l5.36,7.62h-5.33ZM2143.88,2034.03h4.63c2.32,0,3.9-1.21,3.9-3.08s-1.59-3.08-3.9-3.08h-4.63v6.16Z"/>
    <path class="cls-22" d="M2189.36,2023.59v21.81h-4.67v-9.02h-9.94v9.02h-4.67v-21.81h4.67v8.57h9.94v-8.57h4.67Z"/>
    <path class="cls-4" d="M2208.33,2041.97h-9.71l-1.4,3.43h-5.24l8.89-21.81h5.24l8.89,21.81h-5.27l-1.4-3.43ZM2206.71,2038l-3.24-7.97-3.24,7.97h6.48Z"/>
    <path class="cls-3" d="M2233.11,2041.17v4.22h-15.55v-21.81h4.7v17.59h10.86Z"/>
    <path class="cls-24" d="M2238.63,2027.81h-6.79v-4.22h18.28v4.22h-6.79v17.59h-4.7v-17.59Z"/>
    <path class="cls-17" d="M2257.72,2027.81v4.35h10.95v4.22h-10.95v4.79h12.09v4.22h-16.79v-21.81h16.79v4.22h-12.09Z"/>
    <path class="cls-33" d="M2274.24,2023.59h4.67l10.51,14.09v-14.09h4.7v21.81h-4.7l-10.51-14.09v14.09h-4.67v-21.81Z"/>
    <path class="cls-18" d="M2298.73,2042.82c0-1.49,1.3-2.83,2.95-2.83,1.56,0,2.83,1.33,2.83,2.83,0,1.62-1.27,2.95-2.83,2.95-1.65,0-2.95-1.33-2.95-2.95Z"/>
  </g>
  <g>
    <path class="cls-32" d="M1671.75,3265.56h17.1l13.58,49.28,16.25-49.28h17.1l16.25,49.28,13.58-49.28h17.1l-22.24,73.44h-15.82l-17.32-50.46-17.42,50.46h-15.93l-22.24-73.44Z"/>
    <path class="cls-36" d="M1806.71,3279.78v14.65h36.88v14.22h-36.88v16.14h40.73v14.22h-56.55v-73.44h56.55v14.22h-40.73Z"/>
    <path class="cls-23" d="M1905.19,3339l-16.78-23.84h-11.65v23.84h-15.71v-73.44h33.03c15.93,0,27.69,10.26,27.69,24.8,0,10.9-6.63,19.46-16.68,22.98l18.07,25.66h-17.96ZM1876.75,3300.73h15.61c7.8,0,13.15-4.06,13.15-10.37s-5.35-10.37-13.15-10.37h-15.61v20.74Z"/>
    <path class="cls-35" d="M1951.13,3279.78h-22.88v-14.22h61.58v14.22h-22.88v59.22h-15.82v-59.22Z"/>
    <path class="cls-12" d="M1994.08,3328.1l9.09-10.8c6.95,5.99,14.86,9.62,24.16,9.62,7.91,0,11.97-3.63,11.97-8.23,0-5.24-4.28-6.84-15.5-9.41-15.5-3.53-26.51-7.91-26.51-22.13s11.12-22.88,27.15-22.88c11.97,0,21.27,3.74,28.76,10.16l-8.23,11.33c-6.52-5.24-13.9-8.12-20.95-8.12s-10.8,3.53-10.8,7.91c0,5.35,4.38,7.06,15.71,9.62,15.82,3.53,26.3,8.23,26.3,21.81s-10.58,23.3-28.54,23.3c-12.72,0-24.05-4.28-32.61-12.19Z"/>
    <path class="cls-12" d="M2084.12,3279.78h-22.88v-14.22h61.58v14.22h-22.88v59.22h-15.82v-59.22Z"/>
    <path class="cls-12" d="M2171.26,3327.46h-32.71l-4.7,11.55h-17.64l29.93-73.44h17.64l29.93,73.44h-17.75l-4.7-11.55ZM2165.81,3314.1l-10.9-26.83-10.9,26.83h21.81Z"/>
    <path class="cls-12" d="M2210.08,3279.78h-22.88v-14.22h61.58v14.22h-22.88v59.22h-15.82v-59.22Z"/>
    <path class="cls-12" d="M2278.44,3279.78h-22.88v-14.22h61.58v14.22h-22.88v59.22h-15.82v-59.22Z"/>
  </g>
  <g>
    <g>
      <path class="cls-12" d="M457.95,3249.55h17.1l13.58,49.28,16.25-49.28h17.1l16.25,49.28,13.58-49.28h17.1l-22.24,73.44h-15.82l-17.32-50.46-17.42,50.46h-15.93l-22.24-73.44Z"/>
      <path class="cls-12" d="M592.91,3263.77v14.65h36.88v14.22h-36.88v16.14h40.73v14.22h-56.55v-73.44h56.55v14.22h-40.73Z"/>
      <path class="cls-12" d="M691.39,3323l-16.78-23.84h-11.65v23.84h-15.71v-73.44h33.03c15.93,0,27.69,10.26,27.69,24.8,0,10.9-6.63,19.46-16.68,22.98l18.07,25.66h-17.96ZM662.95,3284.73h15.61c7.8,0,13.15-4.06,13.15-10.37s-5.35-10.37-13.15-10.37h-15.61v20.74Z"/>
      <path class="cls-12" d="M737.33,3263.77h-22.88v-14.22h61.58v14.22h-22.88v59.22h-15.82v-59.22Z"/>
      <path class="cls-12" d="M780.28,3312.09l9.09-10.8c6.95,5.99,14.86,9.62,24.16,9.62,7.91,0,11.97-3.63,11.97-8.23,0-5.24-4.28-6.84-15.5-9.41-15.5-3.53-26.51-7.91-26.51-22.13s11.12-22.88,27.15-22.88c11.97,0,21.27,3.74,28.76,10.16l-8.23,11.33c-6.52-5.24-13.9-8.12-20.95-8.12s-10.8,3.53-10.8,7.91c0,5.35,4.38,7.06,15.71,9.62,15.82,3.53,26.3,8.23,26.3,21.81s-10.58,23.3-28.54,23.3c-12.72,0-24.05-4.28-32.61-12.19Z"/>
      <path class="cls-12" d="M870.32,3263.77h-22.88v-14.22h61.58v14.22h-22.88v59.22h-15.82v-59.22Z"/>
      <path class="cls-12" d="M957.46,3311.45h-32.71l-4.7,11.55h-17.64l29.93-73.44h17.64l29.93,73.44h-17.75l-4.7-11.55ZM952.01,3298.09l-10.9-26.83-10.9,26.83h21.81Z"/>
      <path class="cls-12" d="M996.27,3263.77h-22.88v-14.22h61.58v14.22h-22.88v59.22h-15.82v-59.22Z"/>
      <path class="cls-12" d="M1064.64,3263.77h-22.88v-14.22h61.58v14.22h-22.88v59.22h-15.82v-59.22Z"/>
      <path class="cls-12" d="M488.21,3360.55h-9.71l-1.4,3.43h-5.24l8.89-21.81h5.24l8.89,21.81h-5.27l-1.4-3.43ZM486.59,3356.58l-3.24-7.97-3.24,7.97h6.48Z"/>
      <path class="cls-12" d="M497.6,3342.17h4.67l10.51,14.09v-14.09h4.7v21.81h-4.7l-10.51-14.09v14.09h-4.67v-21.81Z"/>
      <path class="cls-12" d="M522.6,3342.17h7.81c7.33,0,12.54,4.51,12.54,10.89s-5.21,10.92-12.54,10.92h-7.81v-21.81ZM531.01,3359.73c4.16,0,7.11-2.76,7.11-6.67s-2.95-6.63-7.11-6.63h-3.75v13.3h3.75Z"/>
      <path class="cls-12" d="M551.54,3346.4v4.35h10.95v4.22h-10.95v4.79h12.09v4.22h-16.79v-21.81h16.79v4.22h-12.09Z"/>
      <path class="cls-12" d="M581.08,3363.98l-4.98-7.08h-3.46v7.08h-4.67v-21.81h9.81c4.73,0,8.22,3.05,8.22,7.36,0,3.24-1.97,5.78-4.95,6.83l5.37,7.62h-5.33ZM572.63,3352.62h4.63c2.32,0,3.9-1.21,3.9-3.08s-1.59-3.08-3.9-3.08h-4.63v6.16Z"/>
      <path class="cls-12" d="M594.66,3346.4v4.35h10.95v4.22h-10.95v4.79h12.09v4.22h-16.79v-21.81h16.79v4.22h-12.09Z"/>
      <path class="cls-12" d="M640.93,3342.17l-8.89,21.81h-5.24l-8.89-21.81h5.27l6.25,15.36,6.25-15.36h5.24Z"/>
      <path class="cls-12" d="M648.27,3346.4v4.35h10.95v4.22h-10.95v4.79h12.09v4.22h-16.79v-21.81h16.79v4.22h-12.09Z"/>
      <path class="cls-12" d="M677.81,3363.98l-4.98-7.08h-3.46v7.08h-4.67v-21.81h9.81c4.73,0,8.22,3.05,8.22,7.36,0,3.24-1.97,5.78-4.95,6.83l5.36,7.62h-5.33ZM669.36,3352.62h4.63c2.32,0,3.9-1.21,3.9-3.08s-1.59-3.08-3.9-3.08h-4.63v6.16Z"/>
      <path class="cls-12" d="M684.89,3360.74l2.7-3.21c2.06,1.78,4.41,2.86,7.17,2.86,2.35,0,3.56-1.08,3.56-2.44,0-1.56-1.27-2.03-4.6-2.79-4.6-1.05-7.87-2.35-7.87-6.57s3.3-6.79,8.06-6.79c3.56,0,6.32,1.11,8.54,3.02l-2.44,3.36c-1.94-1.56-4.13-2.41-6.22-2.41s-3.21,1.05-3.21,2.35c0,1.59,1.3,2.1,4.67,2.86,4.7,1.05,7.81,2.44,7.81,6.48s-3.14,6.92-8.48,6.92c-3.78,0-7.14-1.27-9.68-3.62Z"/>
      <path class="cls-12" d="M706.87,3342.17h9.81c4.73,0,8.22,3.05,8.22,7.36s-3.49,7.36-8.22,7.36h-5.14v7.08h-4.67v-21.81ZM716.17,3352.62c2.32,0,3.9-1.21,3.9-3.08s-1.59-3.08-3.9-3.08h-4.64v6.16h4.64Z"/>
      <path class="cls-12" d="M741.08,3363.98l-4.98-7.08h-3.46v7.08h-4.67v-21.81h9.81c4.73,0,8.22,3.05,8.22,7.36,0,3.24-1.97,5.78-4.95,6.83l5.36,7.62h-5.33ZM732.64,3352.62h4.63c2.32,0,3.9-1.21,3.9-3.08s-1.59-3.08-3.9-3.08h-4.63v6.16Z"/>
      <path class="cls-12" d="M754.66,3346.4v4.35h10.95v4.22h-10.95v4.79h12.09v4.22h-16.79v-21.81h16.79v4.22h-12.09Z"/>
      <path class="cls-12" d="M769.53,3353.06c0-6.13,5.33-11.27,11.59-11.27,3.3,0,6.35,1.4,8.48,3.65l-3.4,3.05c-1.27-1.46-3.08-2.44-5.08-2.44-3.65,0-6.76,3.24-6.76,7.02s3.11,7.05,6.76,7.05c2,0,3.81-.98,5.08-2.44l3.4,3.05c-2.13,2.22-5.17,3.65-8.48,3.65-6.25,0-11.59-5.17-11.59-11.3Z"/>
      <path class="cls-12" d="M811.92,3342.17v21.81h-4.67v-9.02h-9.94v9.02h-4.67v-21.81h4.67v8.57h9.94v-8.57h4.67Z"/>
      <path class="cls-12" d="M821.56,3346.4v4.35h10.95v4.22h-10.95v4.79h12.09v4.22h-16.79v-21.81h16.79v4.22h-12.09Z"/>
      <path class="cls-12" d="M838.08,3342.17h4.67l10.51,14.09v-14.09h4.7v21.81h-4.7l-10.51-14.09v14.09h-4.67v-21.81Z"/>
      <path class="cls-12" d="M862.57,3361.41c0-1.49,1.3-2.83,2.95-2.83,1.56,0,2.83,1.33,2.83,2.83,0,1.62-1.27,2.95-2.83,2.95-1.65,0-2.95-1.33-2.95-2.95Z"/>
      <path class="cls-12" d="M880.06,3342.17h5.08l4.03,14.63,4.82-14.63h5.08l4.83,14.63,4.03-14.63h5.08l-6.6,21.81h-4.7l-5.14-14.98-5.17,14.98h-4.73l-6.6-21.81Z"/>
      <path class="cls-12" d="M915.81,3342.17h4.7v21.81h-4.7v-21.81Z"/>
      <path class="cls-12" d="M938.52,3363.98l-4.98-7.08h-3.46v7.08h-4.67v-21.81h9.81c4.73,0,8.22,3.05,8.22,7.36,0,3.24-1.97,5.78-4.95,6.83l5.36,7.62h-5.33ZM930.08,3352.62h4.63c2.32,0,3.9-1.21,3.9-3.08s-1.59-3.08-3.9-3.08h-4.63v6.16Z"/>
      <path class="cls-13" d="M975.56,3342.17v21.81h-4.67v-9.02h-9.94v9.02h-4.67v-21.81h4.67v8.57h9.94v-8.57h4.67Z"/>
      <path class="cls-1" d="M994.53,3360.55h-9.71l-1.4,3.43h-5.24l8.89-21.81h5.24l8.89,21.81h-5.27l-1.4-3.43ZM992.91,3356.58l-3.24-7.97-3.24,7.97h6.48Z"/>
      <path class="cls-5" d="M1019.31,3359.76v4.22h-15.55v-21.81h4.7v17.59h10.86Z"/>
      <path class="cls-29" d="M1024.83,3346.4h-6.79v-4.22h18.28v4.22h-6.79v17.59h-4.7v-17.59Z"/>
      <path class="cls-39" d="M1043.92,3346.4v4.35h10.95v4.22h-10.95v4.79h12.09v4.22h-16.79v-21.81h16.79v4.22h-12.09Z"/>
      <path class="cls-30" d="M1060.44,3342.17h4.67l10.51,14.09v-14.09h4.7v21.81h-4.7l-10.51-14.09v14.09h-4.67v-21.81Z"/>
      <path class="cls-41" d="M1084.93,3361.41c0-1.49,1.3-2.83,2.95-2.83,1.56,0,2.83,1.33,2.83,2.83,0,1.62-1.27,2.95-2.83,2.95-1.65,0-2.95-1.33-2.95-2.95Z"/>
    </g>
    <g>
      <path class="cls-12" d="M421.69,3218.89c-33.07,25.58-67.15,87.13-67.15,87.13l-3.15,5.59-8.25-15.1c3.31-5.79,14.53-25.05,26.39-41.2,14.14-19.25,31.86-36.41,31.86-36.41h-137.88v166.78h166.78v-166.78h-8.61ZM322,3363.78l-37.14-65.99h16.58l20.56,36.12,6-10.62,8.33,15.05-14.34,25.45Z"/>
      <path class="cls-6" d="M400.68,3262.39c-3.02,3.93-5.82,8.02-8.41,12.24l-12.71,20.72-21.93,38.6-5.43-9.08h0l-15.98-29.06v-.02s-.25-.43-.25-.43h0s-10.22-17.23-10.22-17.23h-16.59l18.59,32.12,15.6,28.62h0s14.06,24.91,14.06,24.91l38.05-66.67s7.23-12.51,15.93-25.11c4.4-6.37,9.18-12.77,13.59-17.57l5.32-5.83v-19.15s-5.32,5.58-5.32,5.58c0,0-13.61,13.48-24.3,27.37Z"/>
    </g>
  </g>
</svg>