<?xml version="1.0" encoding="UTF-8"?>
<svg id="_Слой_1" data-name="Слой 1" xmlns="http://www.w3.org/2000/svg" xmlns:xlink="http://www.w3.org/1999/xlink" viewBox="0 0 1250.94 1250.94">
  <defs>
    <style>
      .cls-1 {
        fill: #fff;
      }

      .cls-2 {
        fill: #0a305c;
      }

      .cls-3 {
        fill: url(#_Безымянный_градиент_649);
      }
    </style>
    <linearGradient id="_Безымянный_градиент_649" data-name="Безымянный градиент 649" x1="529.09" y1="727.5" x2="895.55" y2="430.32" gradientUnits="userSpaceOnUse">
      <stop offset="0" stop-color="#e3ad5d"/>
      <stop offset=".13" stop-color="#e1a853"/>
      <stop offset=".36" stop-color="#de9c3a"/>
      <stop offset=".64" stop-color="#da8811"/>
      <stop offset=".7" stop-color="#d98407"/>
      <stop offset="1" stop-color="#e2aa56"/>
    </linearGradient>
  </defs>
  <rect class="cls-2" width="1250.94" height="1250.94"/>
  <polygon class="cls-1" points="547.48 724.49 483.1 611.39 431.17 611.39 547.48 818.03 592.37 738.36 566.28 691.23 547.48 724.49"/>
  <path class="cls-1" d="M696.33,478.36c-37.14,50.56-72.27,110.88-82.64,129.02l25.83,47.29,9.86-17.5s106.3-191.97,209.66-272.35h-63.42c-5.46,5.34-57.39,56.5-99.29,113.54Z"/>
  <polygon class="cls-1" points="872.42 512.31 872.42 872.42 378.53 872.42 378.53 378.53 749.25 378.53 762 364.36 364.36 364.36 364.36 886.59 886.59 886.59 886.59 496.22 872.42 512.31"/>
  <path class="cls-3" d="M793.84,500.57c-9.46,12.3-18.23,25.11-26.34,38.33l-39.8,64.87-68.66,120.86-17-28.43h0l-50.04-91,.03-.05-.8-1.35h0s-31.99-53.96-31.99-53.96h-51.94l58.22,100.59,48.84,89.61-.02.03,44.02,77.97,119.14-208.77s22.64-39.18,49.89-78.63c13.78-19.95,28.74-39.97,42.55-55.03l16.67-18.24-.02-59.96-16.64,17.46s-42.63,42.21-76.08,85.71Z"/>
</svg>