<?xml version="1.0" encoding="UTF-8"?>
<svg id="_Слой_1" data-name="Слой 1" xmlns="http://www.w3.org/2000/svg" xmlns:xlink="http://www.w3.org/1999/xlink" viewBox="333.01 333.02 584.93 584.90">
  <defs>
    <style>
      .cls-1 {
        fill: #0a305c;
      }

      .cls-2 {
        fill: url(#_Безымянный_градиент_649);
      }
    </style>
    <linearGradient id="_Безымянный_градиент_649" data-name="Безымянный градиент 649" x1="529.09" y1="727.5" x2="895.55" y2="430.32" gradientUnits="userSpaceOnUse">
      <stop offset="0" stop-color="#e3ad5d"/>
      <stop offset=".13" stop-color="#e1a853"/>
      <stop offset=".36" stop-color="#de9c3a"/>
      <stop offset=".64" stop-color="#da8811"/>
      <stop offset=".7" stop-color="#d98407"/>
      <stop offset="1" stop-color="#e2aa56"/>
    </linearGradient>
  </defs>
  <path class="cls-1" d="M859.63,364.36c-103.55,80.11-210.26,272.82-210.26,272.82l-9.86,17.5-25.83-47.29c10.37-18.14,45.5-78.45,82.64-129.02,44.28-60.29,99.77-114.01,99.77-114.01h-431.74v522.23h522.23V364.36h-26.95ZM547.48,818.03l-116.31-206.65h51.93l64.38,113.1,18.8-33.26,26.09,47.13-44.89,79.68Z"/>
  <path class="cls-2" d="M793.84,500.57c-9.46,12.3-18.23,25.11-26.34,38.33l-39.8,64.87-68.66,120.86-17-28.43h0l-50.04-91,.03-.05-.8-1.35h0s-31.99-53.96-31.99-53.96h-51.94l58.22,100.59,48.84,89.61-.02.03,44.02,77.97,119.14-208.77s22.64-39.18,49.89-78.63c13.78-19.95,28.74-39.97,42.55-55.03l16.67-18.24-.02-59.96-16.64,17.46s-42.63,42.21-76.08,85.71Z"/>
</svg>